G04 (created by PCBNEW-RS274X (2011-11-27 BZR 3249)-stable) date 21/01/2012 12:20:12 a.m.*
G01*
G70*
G90*
%MOIN*%
G04 Gerber Fmt 3.4, Leading zero omitted, Abs format*
%FSLAX34Y34*%
G04 APERTURE LIST*
%ADD10C,0.006000*%
%ADD11C,0.065000*%
%ADD12C,0.078000*%
%ADD13O,0.074000X0.148000*%
%ADD14O,0.148000X0.074000*%
%ADD15R,0.350000X0.350000*%
%ADD16C,0.070000*%
%ADD17R,0.070000X0.070000*%
%ADD18C,0.051400*%
%ADD19R,0.090000X0.062000*%
%ADD20O,0.090000X0.062000*%
%ADD21C,0.160000*%
%ADD22C,0.035000*%
%ADD23C,0.016000*%
%ADD24C,0.008000*%
G04 APERTURE END LIST*
G54D10*
G54D11*
X65200Y-38700D03*
X62200Y-38700D03*
G54D12*
X55200Y-37300D03*
X59200Y-37300D03*
G54D11*
X69400Y-46200D03*
X70400Y-46200D03*
X54100Y-49000D03*
X55100Y-49000D03*
X49416Y-48400D03*
X51384Y-48400D03*
X53516Y-42100D03*
X55484Y-42100D03*
X59084Y-42000D03*
X57116Y-42000D03*
G54D13*
X48800Y-34700D03*
X49800Y-34700D03*
X50800Y-34700D03*
X51800Y-34700D03*
X52800Y-34700D03*
X53800Y-34700D03*
X54800Y-34700D03*
X55800Y-34700D03*
X53900Y-39600D03*
X54900Y-39600D03*
X55900Y-39600D03*
X56900Y-39600D03*
X57900Y-39600D03*
X58900Y-39600D03*
G54D14*
X58300Y-47400D03*
X58300Y-46400D03*
X58300Y-45400D03*
X58300Y-44400D03*
G54D13*
X58600Y-51200D03*
X59600Y-51200D03*
X60600Y-51200D03*
X61600Y-51200D03*
X48800Y-51200D03*
X49800Y-51200D03*
X50800Y-51200D03*
X51800Y-51200D03*
X53800Y-51200D03*
X54800Y-51200D03*
X55800Y-51200D03*
X56800Y-51200D03*
X63500Y-51200D03*
X64500Y-51200D03*
X65500Y-51200D03*
X68500Y-48500D03*
X69500Y-48500D03*
X70500Y-48500D03*
X52400Y-37300D03*
X53400Y-37300D03*
X67700Y-51200D03*
X68700Y-51200D03*
G54D11*
X62300Y-45300D03*
X65300Y-45300D03*
X62300Y-46700D03*
X65300Y-46700D03*
X65200Y-40900D03*
X62200Y-40900D03*
X62200Y-39800D03*
X65200Y-39800D03*
X62200Y-42000D03*
X65200Y-42000D03*
X62200Y-37600D03*
X65200Y-37600D03*
G54D15*
X50200Y-44800D03*
G54D16*
X51200Y-38300D03*
G54D17*
X50200Y-38300D03*
G54D16*
X49200Y-38300D03*
G54D18*
X60600Y-40700D03*
X60600Y-41700D03*
X60600Y-42700D03*
X60600Y-43700D03*
X61600Y-43200D03*
X61600Y-44200D03*
X66100Y-48700D03*
X66600Y-43700D03*
X66600Y-42700D03*
X66600Y-41700D03*
X66600Y-40700D03*
X66600Y-39700D03*
X66600Y-38700D03*
X66600Y-37700D03*
X66600Y-36700D03*
X60600Y-36700D03*
X60600Y-37700D03*
X60600Y-38700D03*
X60600Y-39700D03*
X60600Y-46700D03*
X66600Y-44700D03*
X65100Y-48700D03*
X61100Y-48700D03*
X60600Y-47700D03*
X60600Y-45700D03*
X66600Y-45700D03*
X66600Y-46700D03*
X63100Y-48700D03*
X66600Y-47700D03*
X62100Y-48700D03*
X60600Y-44700D03*
X64100Y-48700D03*
G54D19*
X56100Y-47400D03*
G54D20*
X56100Y-46400D03*
X56100Y-45400D03*
X56100Y-44400D03*
X53100Y-44400D03*
X53100Y-45400D03*
X53100Y-46400D03*
X53100Y-47400D03*
G54D19*
X71400Y-44300D03*
G54D20*
X71400Y-43300D03*
X71400Y-42300D03*
X71400Y-41300D03*
X71400Y-40300D03*
X71400Y-39300D03*
X71400Y-38300D03*
X71400Y-37300D03*
X68400Y-37300D03*
X68400Y-38300D03*
X68400Y-39300D03*
X68400Y-40300D03*
X68400Y-41300D03*
X68400Y-42300D03*
X68400Y-43300D03*
X68400Y-44300D03*
G54D21*
X46400Y-33900D03*
X46400Y-51700D03*
X72600Y-33900D03*
X72600Y-51700D03*
G54D22*
X64316Y-42063D03*
X56268Y-41810D03*
G54D23*
X62791Y-44809D02*
X62300Y-45300D01*
X62791Y-41491D02*
X62791Y-44809D01*
X62200Y-40900D02*
X62791Y-41491D01*
X58300Y-46400D02*
X59223Y-46400D01*
X59600Y-51200D02*
X59600Y-50277D01*
X69400Y-45793D02*
X69400Y-46200D01*
X68400Y-44793D02*
X69400Y-45793D01*
X68400Y-44300D02*
X68400Y-44793D01*
X59600Y-47200D02*
X61800Y-47200D01*
X61800Y-47200D02*
X62300Y-46700D01*
X59223Y-46400D02*
X59223Y-46823D01*
X59223Y-46823D02*
X59600Y-47200D01*
X59600Y-47200D02*
X59600Y-50277D01*
X54100Y-48893D02*
X54100Y-49000D01*
X53100Y-47893D02*
X54100Y-48893D01*
X53100Y-47400D02*
X53100Y-47893D01*
X53000Y-42100D02*
X53516Y-42100D01*
X49200Y-38300D02*
X53000Y-42100D01*
X54800Y-49700D02*
X54100Y-49000D01*
X54800Y-51200D02*
X54800Y-49700D01*
X59453Y-40199D02*
X59129Y-40523D01*
X61499Y-40199D02*
X59453Y-40199D01*
X62200Y-40900D02*
X61499Y-40199D01*
X58900Y-39600D02*
X58900Y-40523D01*
X59129Y-40523D02*
X58900Y-40523D01*
X48800Y-34700D02*
X48800Y-33777D01*
X63049Y-45891D02*
X63183Y-45757D01*
X63183Y-45757D02*
X63183Y-41164D01*
X63183Y-41164D02*
X62410Y-40391D01*
X62410Y-40391D02*
X62068Y-40391D01*
X62068Y-40391D02*
X61040Y-39363D01*
X61040Y-39363D02*
X61040Y-37517D01*
X61040Y-37517D02*
X60782Y-37259D01*
X60782Y-37259D02*
X60536Y-37259D01*
X60536Y-37259D02*
X57054Y-33777D01*
X57054Y-33777D02*
X48800Y-33777D01*
X60600Y-44700D02*
X61791Y-45891D01*
X61791Y-45891D02*
X63049Y-45891D01*
X64100Y-48700D02*
X64100Y-46942D01*
X64100Y-46942D02*
X63049Y-45891D01*
G54D24*
X60383Y-44200D02*
X59183Y-45400D01*
X61600Y-44200D02*
X60383Y-44200D01*
X58300Y-45400D02*
X59183Y-45400D01*
X57900Y-39600D02*
X57900Y-40483D01*
X53100Y-46400D02*
X53100Y-45947D01*
X53100Y-45947D02*
X53338Y-45947D01*
X53338Y-45947D02*
X55841Y-43444D01*
X55841Y-43444D02*
X58305Y-43444D01*
X58305Y-43444D02*
X59734Y-42015D01*
X59734Y-42015D02*
X59734Y-41983D01*
X59734Y-41983D02*
X58234Y-40483D01*
X58234Y-40483D02*
X57900Y-40483D01*
X68400Y-42300D02*
X68400Y-42753D01*
X68400Y-42753D02*
X67947Y-42753D01*
X67947Y-42753D02*
X67185Y-43515D01*
X67185Y-43515D02*
X67185Y-46105D01*
X67185Y-46105D02*
X67185Y-48355D01*
X67185Y-48355D02*
X68700Y-49870D01*
X68700Y-49870D02*
X68700Y-51200D01*
X65300Y-46700D02*
X65895Y-46105D01*
X65895Y-46105D02*
X67185Y-46105D01*
X50800Y-51200D02*
X50800Y-49920D01*
X50800Y-49920D02*
X52104Y-48616D01*
X52104Y-48616D02*
X52104Y-47590D01*
X52104Y-47590D02*
X52838Y-46856D01*
X52838Y-46856D02*
X53675Y-46856D01*
X53675Y-46856D02*
X54372Y-46159D01*
X54372Y-46159D02*
X54372Y-45332D01*
X54372Y-45332D02*
X56075Y-43629D01*
X56075Y-43629D02*
X59144Y-43629D01*
X59144Y-43629D02*
X59543Y-43230D01*
X59543Y-43230D02*
X60970Y-43230D01*
X60970Y-43230D02*
X62200Y-42000D01*
X63479Y-48295D02*
X62714Y-48295D01*
X63665Y-48481D02*
X63479Y-48295D01*
X63665Y-49004D02*
X63665Y-48481D01*
X63768Y-49107D02*
X63665Y-49004D01*
X64481Y-49107D02*
X63768Y-49107D01*
X64501Y-49087D02*
X64481Y-49107D01*
X64501Y-42470D02*
X64501Y-49087D01*
X64671Y-42300D02*
X64501Y-42470D01*
X64671Y-39229D02*
X64671Y-42300D01*
X65200Y-38700D02*
X64671Y-39229D01*
X56800Y-51200D02*
X56800Y-52083D01*
X62035Y-52083D02*
X56800Y-52083D01*
X62509Y-51609D02*
X62035Y-52083D01*
X62509Y-48500D02*
X62509Y-51609D01*
X62714Y-48295D02*
X62509Y-48500D01*
X64316Y-42063D02*
X64316Y-41916D01*
X64316Y-41916D02*
X62200Y-39800D01*
X63500Y-51200D02*
X63500Y-52083D01*
X71400Y-44300D02*
X71400Y-49650D01*
X71400Y-49650D02*
X68967Y-52083D01*
X68967Y-52083D02*
X63500Y-52083D01*
X58483Y-35583D02*
X53800Y-35583D01*
X60600Y-37700D02*
X58483Y-35583D01*
X53800Y-34700D02*
X53800Y-35583D01*
X52991Y-35774D02*
X52800Y-35583D01*
X56803Y-35774D02*
X52991Y-35774D01*
X59729Y-38700D02*
X56803Y-35774D01*
X60600Y-38700D02*
X59729Y-38700D01*
X52800Y-34700D02*
X52800Y-35583D01*
X51800Y-35583D02*
X52612Y-36395D01*
X52612Y-36395D02*
X57035Y-36395D01*
X57035Y-36395D02*
X60340Y-39700D01*
X60340Y-39700D02*
X60600Y-39700D01*
X51800Y-34700D02*
X51800Y-35583D01*
X55800Y-51200D02*
X55800Y-52083D01*
X66600Y-42700D02*
X64825Y-44475D01*
X64825Y-44475D02*
X64825Y-47147D01*
X64825Y-47147D02*
X64847Y-47169D01*
X64847Y-47169D02*
X65495Y-47169D01*
X65495Y-47169D02*
X66376Y-46288D01*
X66376Y-46288D02*
X66980Y-46288D01*
X66980Y-46288D02*
X67002Y-46310D01*
X67002Y-46310D02*
X67002Y-46917D01*
X67002Y-46917D02*
X66631Y-47288D01*
X66631Y-47288D02*
X66400Y-47288D01*
X66400Y-47288D02*
X65509Y-48179D01*
X65509Y-48179D02*
X65509Y-49460D01*
X65509Y-49460D02*
X65487Y-49482D01*
X65487Y-49482D02*
X64074Y-49482D01*
X64074Y-49482D02*
X62692Y-50864D01*
X62692Y-50864D02*
X62692Y-51793D01*
X62692Y-51793D02*
X62155Y-52330D01*
X62155Y-52330D02*
X56047Y-52330D01*
X56047Y-52330D02*
X55800Y-52083D01*
X68500Y-48500D02*
X68500Y-47617D01*
X66600Y-41700D02*
X66700Y-41800D01*
X66700Y-41800D02*
X68893Y-41800D01*
X68893Y-41800D02*
X69900Y-42807D01*
X69900Y-42807D02*
X69900Y-46362D01*
X69900Y-46362D02*
X68645Y-47617D01*
X68645Y-47617D02*
X68500Y-47617D01*
X68400Y-38300D02*
X68400Y-38753D01*
X68400Y-38753D02*
X68853Y-38753D01*
X68853Y-38753D02*
X69008Y-38908D01*
X69008Y-38908D02*
X69008Y-39734D01*
X69008Y-39734D02*
X68988Y-39754D01*
X68988Y-39754D02*
X67546Y-39754D01*
X67546Y-39754D02*
X66600Y-40700D01*
X66001Y-39101D02*
X66600Y-39700D01*
X66001Y-37652D02*
X66001Y-39101D01*
X66353Y-37300D02*
X66001Y-37652D01*
X68400Y-37300D02*
X66353Y-37300D01*
X55900Y-39600D02*
X55900Y-40483D01*
X56268Y-41810D02*
X56268Y-40851D01*
X56268Y-40851D02*
X55900Y-40483D01*
X63100Y-48700D02*
X63694Y-49294D01*
X63694Y-49294D02*
X64663Y-49294D01*
X64663Y-49294D02*
X64685Y-49272D01*
X64685Y-49272D02*
X64685Y-48398D01*
X64685Y-48398D02*
X66383Y-46700D01*
X66383Y-46700D02*
X66600Y-46700D01*
X61600Y-51200D02*
X61600Y-50317D01*
X62100Y-48700D02*
X62100Y-49817D01*
X62100Y-49817D02*
X61600Y-50317D01*
G54D23*
X49800Y-51200D02*
X49800Y-48784D01*
X49800Y-48784D02*
X49416Y-48400D01*
G54D24*
X71400Y-40300D02*
X71400Y-41300D01*
X52400Y-37300D02*
X51887Y-37300D01*
X50800Y-37207D02*
X51794Y-37207D01*
X51794Y-37207D02*
X51887Y-37300D01*
X50800Y-37207D02*
X50800Y-34700D01*
X50200Y-37807D02*
X50800Y-37207D01*
X52400Y-37300D02*
X52400Y-38183D01*
X54900Y-39600D02*
X54900Y-38717D01*
X54900Y-38717D02*
X52934Y-38717D01*
X52934Y-38717D02*
X52400Y-38183D01*
X71400Y-41300D02*
X71400Y-41753D01*
X71400Y-43300D02*
X71400Y-43125D01*
X69500Y-48500D02*
X69500Y-47100D01*
X65809Y-38351D02*
X65200Y-37742D01*
X65809Y-39191D02*
X65809Y-38351D01*
X65200Y-39800D02*
X65809Y-39191D01*
X65848Y-42000D02*
X65200Y-42000D01*
X67001Y-44299D02*
X66600Y-44700D01*
X67001Y-42313D02*
X67001Y-44299D01*
X66833Y-42145D02*
X67001Y-42313D01*
X65993Y-42145D02*
X66833Y-42145D01*
X65848Y-42000D02*
X65993Y-42145D01*
X65848Y-40448D02*
X65848Y-42000D01*
X65200Y-39800D02*
X65848Y-40448D01*
X69500Y-47100D02*
X70400Y-46200D01*
X65200Y-37742D02*
X63158Y-37742D01*
X63158Y-37742D02*
X62200Y-38700D01*
X65200Y-37742D02*
X65200Y-37600D01*
X71400Y-43125D02*
X70400Y-44125D01*
X70400Y-44125D02*
X70400Y-46200D01*
X71400Y-41753D02*
X70947Y-41753D01*
X70947Y-41753D02*
X70801Y-41899D01*
X70801Y-41899D02*
X70801Y-42526D01*
X70801Y-42526D02*
X71400Y-43125D01*
X56100Y-44400D02*
X56100Y-44853D01*
X58300Y-47400D02*
X57417Y-47400D01*
X57417Y-47400D02*
X57417Y-45841D01*
X57417Y-45841D02*
X56429Y-44853D01*
X55100Y-49000D02*
X55817Y-49000D01*
X56550Y-48267D02*
X57417Y-47400D01*
X71400Y-37300D02*
X71400Y-38300D01*
X71400Y-38300D02*
X71400Y-39300D01*
X71400Y-39300D02*
X71400Y-40300D01*
X50200Y-38300D02*
X50200Y-37807D01*
X56429Y-44853D02*
X56100Y-44853D01*
X55817Y-49000D02*
X56550Y-48267D01*
X56550Y-48267D02*
X58600Y-50317D01*
X58600Y-51200D02*
X58600Y-50317D01*
X55484Y-42100D02*
X55512Y-42128D01*
X55512Y-42128D02*
X56578Y-42128D01*
X56578Y-42128D02*
X56900Y-41806D01*
X56900Y-41806D02*
X56900Y-39600D01*
X56900Y-41806D02*
X56922Y-41806D01*
X56922Y-41806D02*
X57116Y-42000D01*
X53900Y-41435D02*
X53900Y-39600D01*
X55037Y-42572D02*
X53900Y-41435D01*
X58512Y-42572D02*
X55037Y-42572D01*
X59084Y-42000D02*
X58512Y-42572D01*
M02*
