M48
;DRILL file {Pcbnew (2011-11-27 BZR 3249)-stable} date 21/01/2012 12:38:37 a.m.
;FORMAT={-:-/ absolute / metric / decimal}
FMAT,2
METRIC,TZ
T1C0.635
T2C0.699
T3C0.798
T4C0.813
T5C0.998
T6C1.118
T7C1.143
T8C3.048
%
G90
G05
M71
T1
X142.921Y-106.197
X163.363Y-106.840
T2
X125.517Y-122.936
X130.515Y-122.936
X135.931Y-106.934
X137.414Y-124.460
X139.954Y-124.460
X140.929Y-106.934
X145.075Y-106.680
X150.073Y-106.680
X176.276Y-117.348
X178.816Y-117.348
T3
X153.924Y-93.218
X153.924Y-95.758
X153.924Y-98.298
X153.924Y-100.838
X153.924Y-103.378
X153.924Y-105.918
X153.924Y-108.458
X153.924Y-110.998
X153.924Y-113.538
X153.924Y-116.078
X153.924Y-118.618
X153.924Y-121.158
X155.194Y-123.698
X156.464Y-109.728
X156.464Y-112.268
X157.734Y-123.698
X160.274Y-123.698
X162.814Y-123.698
X165.354Y-123.698
X167.894Y-123.698
X169.164Y-93.218
X169.164Y-95.758
X169.164Y-98.298
X169.164Y-100.838
X169.164Y-103.378
X169.164Y-105.918
X169.164Y-108.458
X169.164Y-110.998
X169.164Y-113.538
X169.164Y-116.078
X169.164Y-118.618
X169.164Y-121.158
T4
X134.874Y-112.776
X134.874Y-115.316
X134.874Y-117.856
X134.874Y-120.396
X142.494Y-112.776
X142.494Y-115.316
X142.494Y-117.856
X142.494Y-120.396
X157.988Y-95.504
X157.988Y-98.298
X157.988Y-101.092
X157.988Y-103.886
X157.988Y-106.680
X158.242Y-115.062
X158.242Y-118.618
X165.608Y-95.504
X165.608Y-98.298
X165.608Y-101.092
X165.608Y-103.886
X165.608Y-106.680
X165.862Y-115.062
X165.862Y-118.618
X173.736Y-94.742
X173.736Y-97.282
X173.736Y-99.822
X173.736Y-102.362
X173.736Y-104.902
X173.736Y-107.442
X173.736Y-109.982
X173.736Y-112.522
X181.356Y-94.742
X181.356Y-97.282
X181.356Y-99.822
X181.356Y-102.362
X181.356Y-104.902
X181.356Y-107.442
X181.356Y-109.982
X181.356Y-112.522
T5
X140.208Y-94.742
X150.368Y-94.742
T6
X123.952Y-88.138
X123.952Y-130.048
X126.492Y-88.138
X126.492Y-130.048
X129.032Y-88.138
X129.032Y-130.048
X131.572Y-88.138
X131.572Y-130.048
X133.096Y-94.742
X134.112Y-88.138
X135.636Y-94.742
X136.652Y-88.138
X136.652Y-130.048
X136.906Y-100.584
X139.192Y-88.138
X139.192Y-130.048
X139.446Y-100.584
X141.732Y-88.138
X141.732Y-130.048
X141.986Y-100.584
X144.272Y-130.048
X144.526Y-100.584
X147.066Y-100.584
X148.082Y-112.776
X148.082Y-115.316
X148.082Y-117.856
X148.082Y-120.396
X148.844Y-130.048
X149.606Y-100.584
X151.384Y-130.048
X153.924Y-130.048
X156.464Y-130.048
X161.290Y-130.048
X163.830Y-130.048
X166.370Y-130.048
X171.958Y-130.048
X173.990Y-123.190
X174.498Y-130.048
X176.530Y-123.190
X179.070Y-123.190
T7
X124.968Y-97.282
X127.508Y-97.282
X130.048Y-97.282
T8
X117.856Y-86.106
X117.856Y-131.318
X127.508Y-113.792
X184.404Y-86.106
X184.404Y-131.318
T0
M30
