G04 (created by PCBNEW-RS274X (2011-11-27 BZR 3249)-stable) date 21/01/2012 12:20:13 a.m.*
G01*
G70*
G90*
%MOIN*%
G04 Gerber Fmt 3.4, Leading zero omitted, Abs format*
%FSLAX34Y34*%
G04 APERTURE LIST*
%ADD10C,0.006000*%
%ADD11C,0.015000*%
%ADD12C,0.085000*%
%ADD13R,0.370000X0.370000*%
%ADD14C,0.090000*%
%ADD15R,0.090000X0.090000*%
%ADD16R,0.110000X0.082000*%
%ADD17O,0.110000X0.082000*%
%ADD18C,0.180000*%
G04 APERTURE END LIST*
G54D10*
G54D11*
X45100Y-53000D02*
X45100Y-32600D01*
X73900Y-53000D02*
X45100Y-53000D01*
X73900Y-32600D02*
X73900Y-53000D01*
X45100Y-32600D02*
X74000Y-32600D01*
%LPC*%
G54D12*
X65200Y-38700D03*
X62200Y-38700D03*
X62300Y-45300D03*
X65300Y-45300D03*
X62300Y-46700D03*
X65300Y-46700D03*
X65200Y-40900D03*
X62200Y-40900D03*
X62200Y-39800D03*
X65200Y-39800D03*
X62200Y-42000D03*
X65200Y-42000D03*
X62200Y-37600D03*
X65200Y-37600D03*
G54D13*
X50200Y-44800D03*
G54D14*
X51200Y-38300D03*
G54D15*
X50200Y-38300D03*
G54D14*
X49200Y-38300D03*
G54D16*
X56100Y-47400D03*
G54D17*
X56100Y-46400D03*
X56100Y-45400D03*
X56100Y-44400D03*
X53100Y-44400D03*
X53100Y-45400D03*
X53100Y-46400D03*
X53100Y-47400D03*
G54D16*
X71400Y-44300D03*
G54D17*
X71400Y-43300D03*
X71400Y-42300D03*
X71400Y-41300D03*
X71400Y-40300D03*
X71400Y-39300D03*
X71400Y-38300D03*
X71400Y-37300D03*
X68400Y-37300D03*
X68400Y-38300D03*
X68400Y-39300D03*
X68400Y-40300D03*
X68400Y-41300D03*
X68400Y-42300D03*
X68400Y-43300D03*
X68400Y-44300D03*
G54D18*
X46400Y-33900D03*
X46400Y-51700D03*
X72600Y-33900D03*
X72600Y-51700D03*
M02*
