G04 #@! TF.FileFunction,Copper,L1,Top,Signal*
%FSLAX46Y46*%
G04 Gerber Fmt 4.6, Leading zero omitted, Abs format (unit mm)*
G04 Created by KiCad (PCBNEW 4.0.2-2.fc24-product) date Thu 11 Aug 2016 11:34:58 NZST*
%MOMM*%
G01*
G04 APERTURE LIST*
%ADD10C,0.100000*%
%ADD11R,2.032000X1.727200*%
%ADD12O,2.032000X1.727200*%
%ADD13R,1.727200X1.727200*%
%ADD14O,1.727200X1.727200*%
%ADD15R,1.727200X2.032000*%
%ADD16O,1.727200X2.032000*%
%ADD17C,1.305560*%
%ADD18C,0.250000*%
G04 APERTURE END LIST*
D10*
D11*
X133096000Y-97028000D03*
D12*
X133096000Y-99568000D03*
X133096000Y-102108000D03*
D11*
X133096000Y-116586000D03*
D12*
X133096000Y-114046000D03*
X133096000Y-111506000D03*
X133096000Y-108966000D03*
D11*
X133350000Y-82296000D03*
D12*
X133350000Y-84836000D03*
X133350000Y-87376000D03*
X133350000Y-89916000D03*
D13*
X99568000Y-128016000D03*
D14*
X97028000Y-128016000D03*
X99568000Y-125476000D03*
X97028000Y-125476000D03*
X99568000Y-122936000D03*
X97028000Y-122936000D03*
X99568000Y-120396000D03*
X97028000Y-120396000D03*
X99568000Y-117856000D03*
X97028000Y-117856000D03*
X99568000Y-115316000D03*
X97028000Y-115316000D03*
X99568000Y-112776000D03*
X97028000Y-112776000D03*
X99568000Y-110236000D03*
X97028000Y-110236000D03*
X99568000Y-107696000D03*
X97028000Y-107696000D03*
X99568000Y-105156000D03*
X97028000Y-105156000D03*
X99568000Y-102616000D03*
X97028000Y-102616000D03*
X99568000Y-100076000D03*
X97028000Y-100076000D03*
X99568000Y-97536000D03*
X97028000Y-97536000D03*
X99568000Y-94996000D03*
X97028000Y-94996000D03*
X99568000Y-92456000D03*
X97028000Y-92456000D03*
X99568000Y-89916000D03*
X97028000Y-89916000D03*
X99568000Y-87376000D03*
X97028000Y-87376000D03*
X99568000Y-84836000D03*
X97028000Y-84836000D03*
X99568000Y-82296000D03*
X97028000Y-82296000D03*
X99568000Y-79756000D03*
X97028000Y-79756000D03*
D15*
X105918000Y-80010000D03*
D16*
X108458000Y-80010000D03*
X110998000Y-80010000D03*
X113538000Y-80010000D03*
X116078000Y-80010000D03*
X118618000Y-80010000D03*
X121158000Y-80010000D03*
X123698000Y-80010000D03*
D17*
X108712000Y-105156000D03*
X108712000Y-107696000D03*
X108712000Y-110236000D03*
X108712000Y-112776000D03*
X111252000Y-111506000D03*
X111252000Y-114046000D03*
X122682000Y-125476000D03*
X123952000Y-112776000D03*
X123952000Y-110236000D03*
X123952000Y-107696000D03*
X123952000Y-105156000D03*
X123952000Y-102616000D03*
X123952000Y-100076000D03*
X123952000Y-97536000D03*
X123952000Y-94996000D03*
X108712000Y-94996000D03*
X108712000Y-97536000D03*
X108712000Y-100076000D03*
X108712000Y-102616000D03*
X108712000Y-120396000D03*
X123952000Y-115316000D03*
X120142000Y-125476000D03*
X109982000Y-125476000D03*
X108712000Y-122936000D03*
X108712000Y-117856000D03*
X123952000Y-117856000D03*
X123952000Y-120396000D03*
X115062000Y-125476000D03*
X123952000Y-122936000D03*
X112522000Y-125476000D03*
X108712000Y-115316000D03*
X117602000Y-125476000D03*
D18*
X122967000Y-104171000D02*
X123952000Y-105156000D01*
X122967000Y-102178000D02*
X122967000Y-104171000D01*
X123799000Y-101346000D02*
X122967000Y-102178000D01*
X124081000Y-101346000D02*
X123799000Y-101346000D01*
X130508000Y-94918500D02*
X124081000Y-101346000D01*
X130508000Y-88346700D02*
X130508000Y-94918500D01*
X132830000Y-86024900D02*
X130508000Y-88346700D01*
X133350000Y-86024900D02*
X132830000Y-86024900D01*
X133350000Y-84836000D02*
X133350000Y-86024900D01*
X131999000Y-94569000D02*
X123952000Y-102616000D01*
X131999000Y-89395800D02*
X131999000Y-94569000D01*
X132830000Y-88564900D02*
X131999000Y-89395800D01*
X133350000Y-88564900D02*
X132830000Y-88564900D01*
X133350000Y-87376000D02*
X133350000Y-88564900D01*
X113538000Y-90170000D02*
X113538000Y-80010000D01*
X108712000Y-94996000D02*
X113538000Y-90170000D01*
X107361000Y-121747000D02*
X108712000Y-120396000D01*
X99034200Y-121747000D02*
X107361000Y-121747000D01*
X98216900Y-122564000D02*
X99034200Y-121747000D01*
X98216900Y-122936000D02*
X98216900Y-122564000D01*
X97028000Y-122936000D02*
X98216900Y-122936000D01*
X133096000Y-108966000D02*
X133096000Y-102108000D01*
X133350000Y-91104900D02*
X133350000Y-89916000D01*
X134437000Y-92192200D02*
X133350000Y-91104900D01*
X134437000Y-100767000D02*
X134437000Y-92192200D01*
X133096000Y-102108000D02*
X134437000Y-100767000D01*
X112522000Y-122743000D02*
X112522000Y-123733000D01*
X108824000Y-119045000D02*
X112522000Y-122743000D01*
X99034200Y-119045000D02*
X108824000Y-119045000D01*
X98216900Y-118228000D02*
X99034200Y-119045000D01*
X98216900Y-117856000D02*
X98216900Y-118228000D01*
X97028000Y-117856000D02*
X98216900Y-117856000D01*
X112522000Y-123733000D02*
X112522000Y-125476000D01*
X123155000Y-123733000D02*
X123952000Y-122936000D01*
X112522000Y-123733000D02*
X123155000Y-123733000D01*
X111836000Y-115316000D02*
X108712000Y-115316000D01*
X112841000Y-114311000D02*
X111836000Y-115316000D01*
X131754000Y-114311000D02*
X112841000Y-114311000D01*
X131754000Y-114576000D02*
X131754000Y-114311000D01*
X132576000Y-115397000D02*
X131754000Y-114576000D01*
X133096000Y-115397000D02*
X132576000Y-115397000D01*
X133096000Y-116586000D02*
X133096000Y-115397000D01*
X133096000Y-100757000D02*
X133096000Y-99568000D01*
X132576000Y-100757000D02*
X133096000Y-100757000D01*
X131754000Y-101578000D02*
X132576000Y-100757000D01*
X131754000Y-114311000D02*
X131754000Y-101578000D01*
X133350000Y-81107100D02*
X133350000Y-82296000D01*
X125984000Y-81107100D02*
X133350000Y-81107100D01*
X124887000Y-80010000D02*
X125984000Y-81107100D01*
X123698000Y-80010000D02*
X124887000Y-80010000D01*
X97028000Y-125476000D02*
X97028000Y-128016000D01*
M02*
