G04 #@! TF.FileFunction,Legend,Bot*
%FSLAX46Y46*%
G04 Gerber Fmt 4.6, Leading zero omitted, Abs format (unit mm)*
G04 Created by KiCad (PCBNEW 4.0.2-2.fc24-product) date Thu 11 Aug 2016 11:34:58 NZST*
%MOMM*%
G01*
G04 APERTURE LIST*
%ADD10C,0.100000*%
%ADD11C,0.088900*%
G04 APERTURE END LIST*
D10*
D11*
X111207248Y-98118990D02*
X110800848Y-98118990D01*
X111091133Y-97983523D01*
X110800848Y-97848057D01*
X111207248Y-97848057D01*
X111168543Y-97422305D02*
X111187895Y-97441657D01*
X111207248Y-97499714D01*
X111207248Y-97538419D01*
X111187895Y-97596476D01*
X111149190Y-97635181D01*
X111110486Y-97654533D01*
X111033076Y-97673885D01*
X110975019Y-97673885D01*
X110897610Y-97654533D01*
X110858905Y-97635181D01*
X110820200Y-97596476D01*
X110800848Y-97538419D01*
X110800848Y-97499714D01*
X110820200Y-97441657D01*
X110839552Y-97422305D01*
X111207248Y-97035257D02*
X111207248Y-97267485D01*
X111207248Y-97151371D02*
X110800848Y-97151371D01*
X110858905Y-97190076D01*
X110897610Y-97228781D01*
X110916962Y-97267485D01*
X111726133Y-100418294D02*
X111726133Y-100224771D01*
X111842248Y-100456999D02*
X111435848Y-100321533D01*
X111842248Y-100186066D01*
X111842248Y-99818371D02*
X111648724Y-99953837D01*
X111842248Y-100050599D02*
X111435848Y-100050599D01*
X111435848Y-99895780D01*
X111455200Y-99857075D01*
X111474552Y-99837723D01*
X111513257Y-99818371D01*
X111571314Y-99818371D01*
X111610019Y-99837723D01*
X111629371Y-99857075D01*
X111648724Y-99895780D01*
X111648724Y-100050599D01*
X111842248Y-99644199D02*
X111435848Y-99644199D01*
X111435848Y-99547437D01*
X111455200Y-99489380D01*
X111493905Y-99450675D01*
X111532610Y-99431323D01*
X111610019Y-99411971D01*
X111668076Y-99411971D01*
X111745486Y-99431323D01*
X111784190Y-99450675D01*
X111822895Y-99489380D01*
X111842248Y-99547437D01*
X111842248Y-99644199D01*
X111435848Y-99237799D02*
X111764838Y-99237799D01*
X111803543Y-99218447D01*
X111822895Y-99199094D01*
X111842248Y-99160390D01*
X111842248Y-99082980D01*
X111822895Y-99044275D01*
X111803543Y-99024923D01*
X111764838Y-99005571D01*
X111435848Y-99005571D01*
X111842248Y-98812047D02*
X111435848Y-98812047D01*
X111842248Y-98618523D02*
X111435848Y-98618523D01*
X111842248Y-98386295D01*
X111435848Y-98386295D01*
X111435848Y-98115362D02*
X111435848Y-98037952D01*
X111455200Y-97999247D01*
X111493905Y-97960543D01*
X111571314Y-97941190D01*
X111706781Y-97941190D01*
X111784190Y-97960543D01*
X111822895Y-97999247D01*
X111842248Y-98037952D01*
X111842248Y-98115362D01*
X111822895Y-98154066D01*
X111784190Y-98192771D01*
X111706781Y-98212123D01*
X111571314Y-98212123D01*
X111493905Y-98192771D01*
X111455200Y-98154066D01*
X111435848Y-98115362D01*
X111880952Y-97863781D02*
X111880952Y-97554143D01*
X111842248Y-97457381D02*
X111435848Y-97457381D01*
X111435848Y-97302562D01*
X111455200Y-97263857D01*
X111474552Y-97244505D01*
X111513257Y-97225153D01*
X111571314Y-97225153D01*
X111610019Y-97244505D01*
X111629371Y-97263857D01*
X111648724Y-97302562D01*
X111648724Y-97457381D01*
X111842248Y-96818753D02*
X111648724Y-96954219D01*
X111842248Y-97050981D02*
X111435848Y-97050981D01*
X111435848Y-96896162D01*
X111455200Y-96857457D01*
X111474552Y-96838105D01*
X111513257Y-96818753D01*
X111571314Y-96818753D01*
X111610019Y-96838105D01*
X111629371Y-96857457D01*
X111648724Y-96896162D01*
X111648724Y-97050981D01*
X111435848Y-96567172D02*
X111435848Y-96489762D01*
X111455200Y-96451057D01*
X111493905Y-96412353D01*
X111571314Y-96393000D01*
X111706781Y-96393000D01*
X111784190Y-96412353D01*
X111822895Y-96451057D01*
X111842248Y-96489762D01*
X111842248Y-96567172D01*
X111822895Y-96605876D01*
X111784190Y-96644581D01*
X111706781Y-96663933D01*
X111571314Y-96663933D01*
X111493905Y-96644581D01*
X111455200Y-96605876D01*
X111435848Y-96567172D01*
X111880952Y-96315591D02*
X111880952Y-96005953D01*
X111842248Y-95909191D02*
X111435848Y-95909191D01*
X111726133Y-95773724D01*
X111435848Y-95638258D01*
X111842248Y-95638258D01*
X111842248Y-95444734D02*
X111435848Y-95444734D01*
X111842248Y-95251210D02*
X111435848Y-95251210D01*
X111842248Y-95018982D01*
X111435848Y-95018982D01*
X111842248Y-94825458D02*
X111435848Y-94825458D01*
X110369048Y-100178810D02*
X110369048Y-100411038D01*
X110369048Y-100294924D02*
X109962648Y-100294924D01*
X110020705Y-100333629D01*
X110059410Y-100372334D01*
X110078762Y-100411038D01*
X110001352Y-100023990D02*
X109982000Y-100004638D01*
X109962648Y-99965933D01*
X109962648Y-99869171D01*
X109982000Y-99830467D01*
X110001352Y-99811114D01*
X110040057Y-99791762D01*
X110078762Y-99791762D01*
X110136819Y-99811114D01*
X110369048Y-100043343D01*
X110369048Y-99791762D01*
X110369048Y-102721350D02*
X110369048Y-102953578D01*
X110369048Y-102837464D02*
X109962648Y-102837464D01*
X110020705Y-102876169D01*
X110059410Y-102914874D01*
X110078762Y-102953578D01*
X109962648Y-102585883D02*
X109962648Y-102334302D01*
X110117467Y-102469769D01*
X110117467Y-102411711D01*
X110136819Y-102373007D01*
X110156171Y-102353654D01*
X110194876Y-102334302D01*
X110291638Y-102334302D01*
X110330343Y-102353654D01*
X110349695Y-102373007D01*
X110369048Y-102411711D01*
X110369048Y-102527826D01*
X110349695Y-102566530D01*
X110330343Y-102585883D01*
X110252933Y-105471685D02*
X110252933Y-105278162D01*
X110369048Y-105510390D02*
X109962648Y-105374924D01*
X110369048Y-105239457D01*
X109962648Y-105026581D02*
X109962648Y-104987876D01*
X109982000Y-104949171D01*
X110001352Y-104929819D01*
X110040057Y-104910466D01*
X110117467Y-104891114D01*
X110214229Y-104891114D01*
X110291638Y-104910466D01*
X110330343Y-104929819D01*
X110349695Y-104949171D01*
X110369048Y-104987876D01*
X110369048Y-105026581D01*
X110349695Y-105065285D01*
X110330343Y-105084638D01*
X110291638Y-105103990D01*
X110214229Y-105123342D01*
X110117467Y-105123342D01*
X110040057Y-105103990D01*
X110001352Y-105084638D01*
X109982000Y-105065285D01*
X109962648Y-105026581D01*
X110252933Y-108011685D02*
X110252933Y-107818162D01*
X110369048Y-108050390D02*
X109962648Y-107914924D01*
X110369048Y-107779457D01*
X110369048Y-107431114D02*
X110369048Y-107663342D01*
X110369048Y-107547228D02*
X109962648Y-107547228D01*
X110020705Y-107585933D01*
X110059410Y-107624638D01*
X110078762Y-107663342D01*
X110252933Y-110551685D02*
X110252933Y-110358162D01*
X110369048Y-110590390D02*
X109962648Y-110454924D01*
X110369048Y-110319457D01*
X110001352Y-110203342D02*
X109982000Y-110183990D01*
X109962648Y-110145285D01*
X109962648Y-110048523D01*
X109982000Y-110009819D01*
X110001352Y-109990466D01*
X110040057Y-109971114D01*
X110078762Y-109971114D01*
X110136819Y-109990466D01*
X110369048Y-110222695D01*
X110369048Y-109971114D01*
X110252933Y-113089145D02*
X110252933Y-112895622D01*
X110369048Y-113127850D02*
X109962648Y-112992384D01*
X110369048Y-112856917D01*
X109962648Y-112760155D02*
X109962648Y-112508574D01*
X110117467Y-112644041D01*
X110117467Y-112585983D01*
X110136819Y-112547279D01*
X110156171Y-112527926D01*
X110194876Y-112508574D01*
X110291638Y-112508574D01*
X110330343Y-112527926D01*
X110349695Y-112547279D01*
X110369048Y-112585983D01*
X110369048Y-112702098D01*
X110349695Y-112740802D01*
X110330343Y-112760155D01*
X109962648Y-115959466D02*
X110369048Y-115824000D01*
X109962648Y-115688533D01*
X110330343Y-115320838D02*
X110349695Y-115340190D01*
X110369048Y-115398247D01*
X110369048Y-115436952D01*
X110349695Y-115495009D01*
X110310990Y-115533714D01*
X110272286Y-115553066D01*
X110194876Y-115572418D01*
X110136819Y-115572418D01*
X110059410Y-115553066D01*
X110020705Y-115533714D01*
X109982000Y-115495009D01*
X109962648Y-115436952D01*
X109962648Y-115398247D01*
X109982000Y-115340190D01*
X110001352Y-115320838D01*
X110330343Y-114914438D02*
X110349695Y-114933790D01*
X110369048Y-114991847D01*
X110369048Y-115030552D01*
X110349695Y-115088609D01*
X110310990Y-115127314D01*
X110272286Y-115146666D01*
X110194876Y-115166018D01*
X110136819Y-115166018D01*
X110059410Y-115146666D01*
X110020705Y-115127314D01*
X109982000Y-115088609D01*
X109962648Y-115030552D01*
X109962648Y-114991847D01*
X109982000Y-114933790D01*
X110001352Y-114914438D01*
X112795473Y-114488685D02*
X112795473Y-114295162D01*
X112911588Y-114527390D02*
X112505188Y-114391924D01*
X112911588Y-114256457D01*
X112505188Y-113927466D02*
X112505188Y-114120990D01*
X112698711Y-114140342D01*
X112679359Y-114120990D01*
X112660007Y-114082285D01*
X112660007Y-113985523D01*
X112679359Y-113946819D01*
X112698711Y-113927466D01*
X112737416Y-113908114D01*
X112834178Y-113908114D01*
X112872883Y-113927466D01*
X112892235Y-113946819D01*
X112911588Y-113985523D01*
X112911588Y-114082285D01*
X112892235Y-114120990D01*
X112872883Y-114140342D01*
X112795473Y-111948685D02*
X112795473Y-111755162D01*
X112911588Y-111987390D02*
X112505188Y-111851924D01*
X112911588Y-111716457D01*
X112640654Y-111406819D02*
X112911588Y-111406819D01*
X112485835Y-111503581D02*
X112776121Y-111600342D01*
X112776121Y-111348762D01*
X110369048Y-118180153D02*
X110175524Y-118315619D01*
X110369048Y-118412381D02*
X109962648Y-118412381D01*
X109962648Y-118257562D01*
X109982000Y-118218857D01*
X110001352Y-118199505D01*
X110040057Y-118180153D01*
X110098114Y-118180153D01*
X110136819Y-118199505D01*
X110156171Y-118218857D01*
X110175524Y-118257562D01*
X110175524Y-118412381D01*
X110349695Y-118025333D02*
X110369048Y-117967276D01*
X110369048Y-117870514D01*
X110349695Y-117831810D01*
X110330343Y-117812457D01*
X110291638Y-117793105D01*
X110252933Y-117793105D01*
X110214229Y-117812457D01*
X110194876Y-117831810D01*
X110175524Y-117870514D01*
X110156171Y-117947924D01*
X110136819Y-117986629D01*
X110117467Y-118005981D01*
X110078762Y-118025333D01*
X110040057Y-118025333D01*
X110001352Y-118005981D01*
X109982000Y-117986629D01*
X109962648Y-117947924D01*
X109962648Y-117851162D01*
X109982000Y-117793105D01*
X109962648Y-117676990D02*
X109962648Y-117444762D01*
X110369048Y-117560876D02*
X109962648Y-117560876D01*
X109982000Y-120807238D02*
X109962648Y-120845943D01*
X109962648Y-120904000D01*
X109982000Y-120962057D01*
X110020705Y-121000762D01*
X110059410Y-121020114D01*
X110136819Y-121039466D01*
X110194876Y-121039466D01*
X110272286Y-121020114D01*
X110310990Y-121000762D01*
X110349695Y-120962057D01*
X110369048Y-120904000D01*
X110369048Y-120865295D01*
X110349695Y-120807238D01*
X110330343Y-120787886D01*
X110194876Y-120787886D01*
X110194876Y-120865295D01*
X110369048Y-120613714D02*
X109962648Y-120613714D01*
X110369048Y-120381486D01*
X109962648Y-120381486D01*
X110369048Y-120187962D02*
X109962648Y-120187962D01*
X109962648Y-120091200D01*
X109982000Y-120033143D01*
X110020705Y-119994438D01*
X110059410Y-119975086D01*
X110136819Y-119955734D01*
X110194876Y-119955734D01*
X110272286Y-119975086D01*
X110310990Y-119994438D01*
X110349695Y-120033143D01*
X110369048Y-120091200D01*
X110369048Y-120187962D01*
X110369048Y-123318210D02*
X110175524Y-123453676D01*
X110369048Y-123550438D02*
X109962648Y-123550438D01*
X109962648Y-123395619D01*
X109982000Y-123356914D01*
X110001352Y-123337562D01*
X110040057Y-123318210D01*
X110098114Y-123318210D01*
X110136819Y-123337562D01*
X110156171Y-123356914D01*
X110175524Y-123395619D01*
X110175524Y-123550438D01*
X110252933Y-123163390D02*
X110252933Y-122969867D01*
X110369048Y-123202095D02*
X109962648Y-123066629D01*
X110369048Y-122931162D01*
X109962648Y-122834400D02*
X110369048Y-122737638D01*
X110078762Y-122660228D01*
X110369048Y-122582819D01*
X109962648Y-122486057D01*
X108204000Y-125887238D02*
X108184648Y-125925943D01*
X108184648Y-125984000D01*
X108204000Y-126042057D01*
X108242705Y-126080762D01*
X108281410Y-126100114D01*
X108358819Y-126119466D01*
X108416876Y-126119466D01*
X108494286Y-126100114D01*
X108532990Y-126080762D01*
X108571695Y-126042057D01*
X108591048Y-125984000D01*
X108591048Y-125945295D01*
X108571695Y-125887238D01*
X108552343Y-125867886D01*
X108416876Y-125867886D01*
X108416876Y-125945295D01*
X108591048Y-125461486D02*
X108397524Y-125596952D01*
X108591048Y-125693714D02*
X108184648Y-125693714D01*
X108184648Y-125538895D01*
X108204000Y-125500190D01*
X108223352Y-125480838D01*
X108262057Y-125461486D01*
X108320114Y-125461486D01*
X108358819Y-125480838D01*
X108378171Y-125500190D01*
X108397524Y-125538895D01*
X108397524Y-125693714D01*
X108591048Y-125287314D02*
X108184648Y-125287314D01*
X108591048Y-125055086D01*
X108184648Y-125055086D01*
X124126171Y-125916266D02*
X124145524Y-125858209D01*
X124164876Y-125838857D01*
X124203581Y-125819505D01*
X124261638Y-125819505D01*
X124300343Y-125838857D01*
X124319695Y-125858209D01*
X124339048Y-125896914D01*
X124339048Y-126051733D01*
X123932648Y-126051733D01*
X123932648Y-125916266D01*
X123952000Y-125877562D01*
X123971352Y-125858209D01*
X124010057Y-125838857D01*
X124048762Y-125838857D01*
X124087467Y-125858209D01*
X124106819Y-125877562D01*
X124126171Y-125916266D01*
X124126171Y-126051733D01*
X124339048Y-125451809D02*
X124339048Y-125645333D01*
X123932648Y-125645333D01*
X124339048Y-125316343D02*
X123932648Y-125316343D01*
X124339048Y-125084115D02*
X124106819Y-125258286D01*
X123932648Y-125084115D02*
X124164876Y-125316343D01*
X122428000Y-115727238D02*
X122408648Y-115765943D01*
X122408648Y-115824000D01*
X122428000Y-115882057D01*
X122466705Y-115920762D01*
X122505410Y-115940114D01*
X122582819Y-115959466D01*
X122640876Y-115959466D01*
X122718286Y-115940114D01*
X122756990Y-115920762D01*
X122795695Y-115882057D01*
X122815048Y-115824000D01*
X122815048Y-115785295D01*
X122795695Y-115727238D01*
X122776343Y-115707886D01*
X122640876Y-115707886D01*
X122640876Y-115785295D01*
X122815048Y-115533714D02*
X122408648Y-115533714D01*
X122815048Y-115301486D01*
X122408648Y-115301486D01*
X122815048Y-115107962D02*
X122408648Y-115107962D01*
X122408648Y-115011200D01*
X122428000Y-114953143D01*
X122466705Y-114914438D01*
X122505410Y-114895086D01*
X122582819Y-114875734D01*
X122640876Y-114875734D01*
X122718286Y-114895086D01*
X122756990Y-114914438D01*
X122795695Y-114953143D01*
X122815048Y-115011200D01*
X122815048Y-115107962D01*
X122408648Y-123560114D02*
X122408648Y-123327886D01*
X122815048Y-123444000D02*
X122408648Y-123444000D01*
X122408648Y-123231124D02*
X122815048Y-122960191D01*
X122408648Y-122960191D02*
X122815048Y-123231124D01*
X122408648Y-122727962D02*
X122408648Y-122650552D01*
X122428000Y-122611847D01*
X122466705Y-122573143D01*
X122544114Y-122553790D01*
X122679581Y-122553790D01*
X122756990Y-122573143D01*
X122795695Y-122611847D01*
X122815048Y-122650552D01*
X122815048Y-122727962D01*
X122795695Y-122766666D01*
X122756990Y-122805371D01*
X122679581Y-122824723D01*
X122544114Y-122824723D01*
X122466705Y-122805371D01*
X122428000Y-122766666D01*
X122408648Y-122727962D01*
X122815048Y-120662096D02*
X122621524Y-120797562D01*
X122815048Y-120894324D02*
X122408648Y-120894324D01*
X122408648Y-120739505D01*
X122428000Y-120700800D01*
X122447352Y-120681448D01*
X122486057Y-120662096D01*
X122544114Y-120662096D01*
X122582819Y-120681448D01*
X122602171Y-120700800D01*
X122621524Y-120739505D01*
X122621524Y-120894324D01*
X122408648Y-120526629D02*
X122815048Y-120255696D01*
X122408648Y-120255696D02*
X122815048Y-120526629D01*
X122815048Y-120100876D02*
X122408648Y-120100876D01*
X122815048Y-118180153D02*
X122621524Y-118315619D01*
X122815048Y-118412381D02*
X122408648Y-118412381D01*
X122408648Y-118257562D01*
X122428000Y-118218857D01*
X122447352Y-118199505D01*
X122486057Y-118180153D01*
X122544114Y-118180153D01*
X122582819Y-118199505D01*
X122602171Y-118218857D01*
X122621524Y-118257562D01*
X122621524Y-118412381D01*
X122795695Y-118025333D02*
X122815048Y-117967276D01*
X122815048Y-117870514D01*
X122795695Y-117831810D01*
X122776343Y-117812457D01*
X122737638Y-117793105D01*
X122698933Y-117793105D01*
X122660229Y-117812457D01*
X122640876Y-117831810D01*
X122621524Y-117870514D01*
X122602171Y-117947924D01*
X122582819Y-117986629D01*
X122563467Y-118005981D01*
X122524762Y-118025333D01*
X122486057Y-118025333D01*
X122447352Y-118005981D01*
X122428000Y-117986629D01*
X122408648Y-117947924D01*
X122408648Y-117851162D01*
X122428000Y-117793105D01*
X122408648Y-117676990D02*
X122408648Y-117444762D01*
X122815048Y-117560876D02*
X122408648Y-117560876D01*
X122447352Y-112841314D02*
X122428000Y-112821962D01*
X122408648Y-112783257D01*
X122408648Y-112686495D01*
X122428000Y-112647791D01*
X122447352Y-112628438D01*
X122486057Y-112609086D01*
X122524762Y-112609086D01*
X122582819Y-112628438D01*
X122815048Y-112860667D01*
X122815048Y-112609086D01*
X122408648Y-110320667D02*
X122408648Y-110069086D01*
X122563467Y-110204553D01*
X122563467Y-110146495D01*
X122582819Y-110107791D01*
X122602171Y-110088438D01*
X122640876Y-110069086D01*
X122737638Y-110069086D01*
X122776343Y-110088438D01*
X122795695Y-110107791D01*
X122815048Y-110146495D01*
X122815048Y-110262610D01*
X122795695Y-110301314D01*
X122776343Y-110320667D01*
X122544114Y-107567791D02*
X122815048Y-107567791D01*
X122389295Y-107664553D02*
X122679581Y-107761314D01*
X122679581Y-107509734D01*
X122408648Y-105008438D02*
X122408648Y-105201962D01*
X122602171Y-105221314D01*
X122582819Y-105201962D01*
X122563467Y-105163257D01*
X122563467Y-105066495D01*
X122582819Y-105027791D01*
X122602171Y-105008438D01*
X122640876Y-104989086D01*
X122737638Y-104989086D01*
X122776343Y-105008438D01*
X122795695Y-105027791D01*
X122815048Y-105066495D01*
X122815048Y-105163257D01*
X122795695Y-105201962D01*
X122776343Y-105221314D01*
X122408648Y-102487791D02*
X122408648Y-102565200D01*
X122428000Y-102603905D01*
X122447352Y-102623257D01*
X122505410Y-102661962D01*
X122582819Y-102681314D01*
X122737638Y-102681314D01*
X122776343Y-102661962D01*
X122795695Y-102642610D01*
X122815048Y-102603905D01*
X122815048Y-102526495D01*
X122795695Y-102487791D01*
X122776343Y-102468438D01*
X122737638Y-102449086D01*
X122640876Y-102449086D01*
X122602171Y-102468438D01*
X122582819Y-102487791D01*
X122563467Y-102526495D01*
X122563467Y-102603905D01*
X122582819Y-102642610D01*
X122602171Y-102661962D01*
X122640876Y-102681314D01*
X122408648Y-100160667D02*
X122408648Y-99889734D01*
X122815048Y-100063905D01*
X122582819Y-97523905D02*
X122563467Y-97562610D01*
X122544114Y-97581962D01*
X122505410Y-97601314D01*
X122486057Y-97601314D01*
X122447352Y-97581962D01*
X122428000Y-97562610D01*
X122408648Y-97523905D01*
X122408648Y-97446495D01*
X122428000Y-97407791D01*
X122447352Y-97388438D01*
X122486057Y-97369086D01*
X122505410Y-97369086D01*
X122544114Y-97388438D01*
X122563467Y-97407791D01*
X122582819Y-97446495D01*
X122582819Y-97523905D01*
X122602171Y-97562610D01*
X122621524Y-97581962D01*
X122660229Y-97601314D01*
X122737638Y-97601314D01*
X122776343Y-97581962D01*
X122795695Y-97562610D01*
X122815048Y-97523905D01*
X122815048Y-97446495D01*
X122795695Y-97407791D01*
X122776343Y-97388438D01*
X122737638Y-97369086D01*
X122660229Y-97369086D01*
X122621524Y-97388438D01*
X122602171Y-97407791D01*
X122582819Y-97446495D01*
X122815048Y-95022610D02*
X122815048Y-94945200D01*
X122795695Y-94906495D01*
X122776343Y-94887143D01*
X122718286Y-94848438D01*
X122640876Y-94829086D01*
X122486057Y-94829086D01*
X122447352Y-94848438D01*
X122428000Y-94867791D01*
X122408648Y-94906495D01*
X122408648Y-94983905D01*
X122428000Y-95022610D01*
X122447352Y-95041962D01*
X122486057Y-95061314D01*
X122582819Y-95061314D01*
X122621524Y-95041962D01*
X122640876Y-95022610D01*
X122660229Y-94983905D01*
X122660229Y-94906495D01*
X122640876Y-94867791D01*
X122621524Y-94848438D01*
X122582819Y-94829086D01*
X112101086Y-123780248D02*
X112333314Y-123780248D01*
X112217200Y-124186648D02*
X112217200Y-123780248D01*
X112430076Y-123780248D02*
X112701009Y-124186648D01*
X112701009Y-123780248D02*
X112430076Y-124186648D01*
X112933238Y-123780248D02*
X113010648Y-123780248D01*
X113049353Y-123799600D01*
X113088057Y-123838305D01*
X113107410Y-123915714D01*
X113107410Y-124051181D01*
X113088057Y-124128590D01*
X113049353Y-124167295D01*
X113010648Y-124186648D01*
X112933238Y-124186648D01*
X112894534Y-124167295D01*
X112855829Y-124128590D01*
X112836477Y-124051181D01*
X112836477Y-123915714D01*
X112855829Y-123838305D01*
X112894534Y-123799600D01*
X112933238Y-123780248D01*
X114999104Y-124186648D02*
X114863638Y-123993124D01*
X114766876Y-124186648D02*
X114766876Y-123780248D01*
X114921695Y-123780248D01*
X114960400Y-123799600D01*
X114979752Y-123818952D01*
X114999104Y-123857657D01*
X114999104Y-123915714D01*
X114979752Y-123954419D01*
X114960400Y-123973771D01*
X114921695Y-123993124D01*
X114766876Y-123993124D01*
X115134571Y-123780248D02*
X115405504Y-124186648D01*
X115405504Y-123780248D02*
X115134571Y-124186648D01*
X115560324Y-124186648D02*
X115560324Y-123780248D01*
X117161734Y-123780248D02*
X117297200Y-124186648D01*
X117432667Y-123780248D01*
X117800362Y-124147943D02*
X117781010Y-124167295D01*
X117722953Y-124186648D01*
X117684248Y-124186648D01*
X117626191Y-124167295D01*
X117587486Y-124128590D01*
X117568134Y-124089886D01*
X117548782Y-124012476D01*
X117548782Y-123954419D01*
X117568134Y-123877010D01*
X117587486Y-123838305D01*
X117626191Y-123799600D01*
X117684248Y-123780248D01*
X117722953Y-123780248D01*
X117781010Y-123799600D01*
X117800362Y-123818952D01*
X118206762Y-124147943D02*
X118187410Y-124167295D01*
X118129353Y-124186648D01*
X118090648Y-124186648D01*
X118032591Y-124167295D01*
X117993886Y-124128590D01*
X117974534Y-124089886D01*
X117955182Y-124012476D01*
X117955182Y-123954419D01*
X117974534Y-123877010D01*
X117993886Y-123838305D01*
X118032591Y-123799600D01*
X118090648Y-123780248D01*
X118129353Y-123780248D01*
X118187410Y-123799600D01*
X118206762Y-123818952D01*
X120021047Y-124147943D02*
X120001695Y-124167295D01*
X119943638Y-124186648D01*
X119904933Y-124186648D01*
X119846876Y-124167295D01*
X119808171Y-124128590D01*
X119788819Y-124089886D01*
X119769467Y-124012476D01*
X119769467Y-123954419D01*
X119788819Y-123877010D01*
X119808171Y-123838305D01*
X119846876Y-123799600D01*
X119904933Y-123780248D01*
X119943638Y-123780248D01*
X120001695Y-123799600D01*
X120021047Y-123818952D01*
X120137162Y-123780248D02*
X120369390Y-123780248D01*
X120253276Y-124186648D02*
X120253276Y-123780248D01*
X120485505Y-124167295D02*
X120543562Y-124186648D01*
X120640324Y-124186648D01*
X120679028Y-124167295D01*
X120698381Y-124147943D01*
X120717733Y-124109238D01*
X120717733Y-124070533D01*
X120698381Y-124031829D01*
X120679028Y-124012476D01*
X120640324Y-123993124D01*
X120562914Y-123973771D01*
X120524209Y-123954419D01*
X120504857Y-123935067D01*
X120485505Y-123896362D01*
X120485505Y-123857657D01*
X120504857Y-123818952D01*
X120524209Y-123799600D01*
X120562914Y-123780248D01*
X120659676Y-123780248D01*
X120717733Y-123799600D01*
X117534267Y-108097561D02*
X117534267Y-107710513D01*
X117766495Y-108174970D02*
X116953695Y-107904037D01*
X117766495Y-107633104D01*
X117766495Y-107362170D02*
X117224629Y-107362170D01*
X117379448Y-107362170D02*
X117302038Y-107323465D01*
X117263333Y-107284761D01*
X117224629Y-107207351D01*
X117224629Y-107129942D01*
X117766495Y-106510665D02*
X116953695Y-106510665D01*
X117727790Y-106510665D02*
X117766495Y-106588075D01*
X117766495Y-106742894D01*
X117727790Y-106820303D01*
X117689086Y-106859008D01*
X117611676Y-106897713D01*
X117379448Y-106897713D01*
X117302038Y-106859008D01*
X117263333Y-106820303D01*
X117224629Y-106742894D01*
X117224629Y-106588075D01*
X117263333Y-106510665D01*
X117224629Y-105775275D02*
X117766495Y-105775275D01*
X117224629Y-106123618D02*
X117650381Y-106123618D01*
X117727790Y-106084913D01*
X117766495Y-106007504D01*
X117766495Y-105891390D01*
X117727790Y-105813980D01*
X117689086Y-105775275D01*
X117766495Y-105388228D02*
X117224629Y-105388228D01*
X116953695Y-105388228D02*
X116992400Y-105426933D01*
X117031105Y-105388228D01*
X116992400Y-105349523D01*
X116953695Y-105388228D01*
X117031105Y-105388228D01*
X117224629Y-105001180D02*
X117766495Y-105001180D01*
X117302038Y-105001180D02*
X117263333Y-104962475D01*
X117224629Y-104885066D01*
X117224629Y-104768952D01*
X117263333Y-104691542D01*
X117340743Y-104652837D01*
X117766495Y-104652837D01*
X117766495Y-104149676D02*
X117727790Y-104227085D01*
X117689086Y-104265790D01*
X117611676Y-104304495D01*
X117379448Y-104304495D01*
X117302038Y-104265790D01*
X117263333Y-104227085D01*
X117224629Y-104149676D01*
X117224629Y-104033562D01*
X117263333Y-103956152D01*
X117302038Y-103917447D01*
X117379448Y-103878743D01*
X117611676Y-103878743D01*
X117689086Y-103917447D01*
X117727790Y-103956152D01*
X117766495Y-104033562D01*
X117766495Y-104149676D01*
X117766495Y-102911124D02*
X116953695Y-102911124D01*
X116953695Y-102601486D01*
X116992400Y-102524077D01*
X117031105Y-102485372D01*
X117108514Y-102446667D01*
X117224629Y-102446667D01*
X117302038Y-102485372D01*
X117340743Y-102524077D01*
X117379448Y-102601486D01*
X117379448Y-102911124D01*
X117766495Y-102098324D02*
X117224629Y-102098324D01*
X117379448Y-102098324D02*
X117302038Y-102059619D01*
X117263333Y-102020915D01*
X117224629Y-101943505D01*
X117224629Y-101866096D01*
X117766495Y-101479048D02*
X117727790Y-101556457D01*
X117689086Y-101595162D01*
X117611676Y-101633867D01*
X117379448Y-101633867D01*
X117302038Y-101595162D01*
X117263333Y-101556457D01*
X117224629Y-101479048D01*
X117224629Y-101362934D01*
X117263333Y-101285524D01*
X117302038Y-101246819D01*
X117379448Y-101208115D01*
X117611676Y-101208115D01*
X117689086Y-101246819D01*
X117727790Y-101285524D01*
X117766495Y-101362934D01*
X117766495Y-101479048D01*
X117766495Y-100240496D02*
X116953695Y-100240496D01*
X117534267Y-99969563D01*
X116953695Y-99698630D01*
X117766495Y-99698630D01*
X117766495Y-99311582D02*
X117224629Y-99311582D01*
X116953695Y-99311582D02*
X116992400Y-99350287D01*
X117031105Y-99311582D01*
X116992400Y-99272877D01*
X116953695Y-99311582D01*
X117031105Y-99311582D01*
X117224629Y-98924534D02*
X117766495Y-98924534D01*
X117302038Y-98924534D02*
X117263333Y-98885829D01*
X117224629Y-98808420D01*
X117224629Y-98692306D01*
X117263333Y-98614896D01*
X117340743Y-98576191D01*
X117766495Y-98576191D01*
X117766495Y-98189144D02*
X117224629Y-98189144D01*
X116953695Y-98189144D02*
X116992400Y-98227849D01*
X117031105Y-98189144D01*
X116992400Y-98150439D01*
X116953695Y-98189144D01*
X117031105Y-98189144D01*
M02*
