M48
;DRILL file {KiCad 4.0.2-2.fc24-product} date Thu 11 Aug 2016 11:33:42 NZST
;FORMAT={-:-/ absolute / metric / decimal}
FMAT,2
METRIC,TZ
T1C0.798
T2C1.016
T3C2.500
%
G90
G05
M71
T1
X108.712Y-94.996
X108.712Y-97.536
X108.712Y-100.076
X108.712Y-102.616
X108.712Y-105.156
X108.712Y-107.696
X108.712Y-110.236
X108.712Y-112.776
X108.712Y-115.316
X108.712Y-117.856
X108.712Y-120.396
X108.712Y-122.936
X109.982Y-125.476
X111.252Y-111.506
X111.252Y-114.046
X112.522Y-125.476
X115.062Y-125.476
X117.602Y-125.476
X120.142Y-125.476
X122.682Y-125.476
X123.952Y-94.996
X123.952Y-97.536
X123.952Y-100.076
X123.952Y-102.616
X123.952Y-105.156
X123.952Y-107.696
X123.952Y-110.236
X123.952Y-112.776
X123.952Y-115.316
X123.952Y-117.856
X123.952Y-120.396
X123.952Y-122.936
T2
X97.028Y-79.756
X97.028Y-82.296
X97.028Y-84.836
X97.028Y-87.376
X97.028Y-89.916
X97.028Y-92.456
X97.028Y-94.996
X97.028Y-97.536
X97.028Y-100.076
X97.028Y-102.616
X97.028Y-105.156
X97.028Y-107.696
X97.028Y-110.236
X97.028Y-112.776
X97.028Y-115.316
X97.028Y-117.856
X97.028Y-120.396
X97.028Y-122.936
X97.028Y-125.476
X97.028Y-128.016
X99.568Y-79.756
X99.568Y-82.296
X99.568Y-84.836
X99.568Y-87.376
X99.568Y-89.916
X99.568Y-92.456
X99.568Y-94.996
X99.568Y-97.536
X99.568Y-100.076
X99.568Y-102.616
X99.568Y-105.156
X99.568Y-107.696
X99.568Y-110.236
X99.568Y-112.776
X99.568Y-115.316
X99.568Y-117.856
X99.568Y-120.396
X99.568Y-122.936
X99.568Y-125.476
X99.568Y-128.016
X105.918Y-80.01
X108.458Y-80.01
X110.998Y-80.01
X113.538Y-80.01
X116.078Y-80.01
X118.618Y-80.01
X121.158Y-80.01
X123.698Y-80.01
X133.096Y-97.028
X133.096Y-99.568
X133.096Y-102.108
X133.096Y-108.966
X133.096Y-111.506
X133.096Y-114.046
X133.096Y-116.586
X133.35Y-82.296
X133.35Y-84.836
X133.35Y-87.376
X133.35Y-89.916
T3
X133.096Y-128.27
T0
M30
