G04 #@! TF.FileFunction,Legend,Top*
%FSLAX46Y46*%
G04 Gerber Fmt 4.6, Leading zero omitted, Abs format (unit mm)*
G04 Created by KiCad (PCBNEW 4.0.2-2.fc24-product) date Thu 11 Aug 2016 11:34:58 NZST*
%MOMM*%
G01*
G04 APERTURE LIST*
%ADD10C,0.100000*%
%ADD11C,0.300000*%
%ADD12C,0.150000*%
%ADD13C,0.127000*%
G04 APERTURE END LIST*
D10*
D11*
X108240572Y-88632571D02*
X108240572Y-87132571D01*
X108597715Y-87132571D01*
X108812000Y-87204000D01*
X108954858Y-87346857D01*
X109026286Y-87489714D01*
X109097715Y-87775429D01*
X109097715Y-87989714D01*
X109026286Y-88275429D01*
X108954858Y-88418286D01*
X108812000Y-88561143D01*
X108597715Y-88632571D01*
X108240572Y-88632571D01*
X110383429Y-87632571D02*
X110383429Y-88632571D01*
X109740572Y-87632571D02*
X109740572Y-88418286D01*
X109812000Y-88561143D01*
X109954858Y-88632571D01*
X110169143Y-88632571D01*
X110312000Y-88561143D01*
X110383429Y-88489714D01*
X111026286Y-88561143D02*
X111169143Y-88632571D01*
X111454858Y-88632571D01*
X111597715Y-88561143D01*
X111669143Y-88418286D01*
X111669143Y-88346857D01*
X111597715Y-88204000D01*
X111454858Y-88132571D01*
X111240572Y-88132571D01*
X111097715Y-88061143D01*
X111026286Y-87918286D01*
X111026286Y-87846857D01*
X111097715Y-87704000D01*
X111240572Y-87632571D01*
X111454858Y-87632571D01*
X111597715Y-87704000D01*
X112097715Y-87632571D02*
X112669144Y-87632571D01*
X112312001Y-87132571D02*
X112312001Y-88418286D01*
X112383429Y-88561143D01*
X112526287Y-88632571D01*
X112669144Y-88632571D01*
X113026287Y-87632571D02*
X113383430Y-88632571D01*
X113740572Y-87632571D02*
X113383430Y-88632571D01*
X113240572Y-88989714D01*
X113169144Y-89061143D01*
X113026287Y-89132571D01*
X114312001Y-88061143D02*
X115454858Y-88061143D01*
X116097715Y-88204000D02*
X116812001Y-88204000D01*
X115954858Y-88632571D02*
X116454858Y-87132571D01*
X116954858Y-88632571D01*
X118312001Y-88489714D02*
X118240572Y-88561143D01*
X118026286Y-88632571D01*
X117883429Y-88632571D01*
X117669144Y-88561143D01*
X117526286Y-88418286D01*
X117454858Y-88275429D01*
X117383429Y-87989714D01*
X117383429Y-87775429D01*
X117454858Y-87489714D01*
X117526286Y-87346857D01*
X117669144Y-87204000D01*
X117883429Y-87132571D01*
X118026286Y-87132571D01*
X118240572Y-87204000D01*
X118312001Y-87275429D01*
X119169144Y-88632571D02*
X119026286Y-88561143D01*
X118954858Y-88489714D01*
X118883429Y-88346857D01*
X118883429Y-87918286D01*
X118954858Y-87775429D01*
X119026286Y-87704000D01*
X119169144Y-87632571D01*
X119383429Y-87632571D01*
X119526286Y-87704000D01*
X119597715Y-87775429D01*
X119669144Y-87918286D01*
X119669144Y-88346857D01*
X119597715Y-88489714D01*
X119526286Y-88561143D01*
X119383429Y-88632571D01*
X119169144Y-88632571D01*
X120312001Y-88632571D02*
X120312001Y-87632571D01*
X120312001Y-87918286D02*
X120383429Y-87775429D01*
X120454858Y-87704000D01*
X120597715Y-87632571D01*
X120740572Y-87632571D01*
X121240572Y-87632571D02*
X121240572Y-88632571D01*
X121240572Y-87775429D02*
X121312000Y-87704000D01*
X121454858Y-87632571D01*
X121669143Y-87632571D01*
X121812000Y-87704000D01*
X121883429Y-87846857D01*
X121883429Y-88632571D01*
X104133429Y-91032571D02*
X104133429Y-89532571D01*
X104133429Y-90104000D02*
X104276286Y-90032571D01*
X104562000Y-90032571D01*
X104704857Y-90104000D01*
X104776286Y-90175429D01*
X104847715Y-90318286D01*
X104847715Y-90746857D01*
X104776286Y-90889714D01*
X104704857Y-90961143D01*
X104562000Y-91032571D01*
X104276286Y-91032571D01*
X104133429Y-90961143D01*
X105347715Y-90032571D02*
X105704858Y-91032571D01*
X106062000Y-90032571D02*
X105704858Y-91032571D01*
X105562000Y-91389714D01*
X105490572Y-91461143D01*
X105347715Y-91532571D01*
X108562000Y-89604000D02*
X108419143Y-89532571D01*
X108204857Y-89532571D01*
X107990572Y-89604000D01*
X107847714Y-89746857D01*
X107776286Y-89889714D01*
X107704857Y-90175429D01*
X107704857Y-90389714D01*
X107776286Y-90675429D01*
X107847714Y-90818286D01*
X107990572Y-90961143D01*
X108204857Y-91032571D01*
X108347714Y-91032571D01*
X108562000Y-90961143D01*
X108633429Y-90889714D01*
X108633429Y-90389714D01*
X108347714Y-90389714D01*
X109919143Y-90032571D02*
X109919143Y-91032571D01*
X109276286Y-90032571D02*
X109276286Y-90818286D01*
X109347714Y-90961143D01*
X109490572Y-91032571D01*
X109704857Y-91032571D01*
X109847714Y-90961143D01*
X109919143Y-90889714D01*
X110562000Y-90961143D02*
X110704857Y-91032571D01*
X110990572Y-91032571D01*
X111133429Y-90961143D01*
X111204857Y-90818286D01*
X111204857Y-90746857D01*
X111133429Y-90604000D01*
X110990572Y-90532571D01*
X110776286Y-90532571D01*
X110633429Y-90461143D01*
X110562000Y-90318286D01*
X110562000Y-90246857D01*
X110633429Y-90104000D01*
X110776286Y-90032571D01*
X110990572Y-90032571D01*
X111133429Y-90104000D01*
X111633429Y-90032571D02*
X112204858Y-90032571D01*
X111847715Y-89532571D02*
X111847715Y-90818286D01*
X111919143Y-90961143D01*
X112062001Y-91032571D01*
X112204858Y-91032571D01*
X113347715Y-91032571D02*
X113347715Y-90246857D01*
X113276286Y-90104000D01*
X113133429Y-90032571D01*
X112847715Y-90032571D01*
X112704858Y-90104000D01*
X113347715Y-90961143D02*
X113204858Y-91032571D01*
X112847715Y-91032571D01*
X112704858Y-90961143D01*
X112633429Y-90818286D01*
X112633429Y-90675429D01*
X112704858Y-90532571D01*
X112847715Y-90461143D01*
X113204858Y-90461143D01*
X113347715Y-90389714D01*
X113919144Y-90032571D02*
X114276287Y-91032571D01*
X114633429Y-90032571D01*
X115419144Y-91032571D02*
X115276286Y-90961143D01*
X115204858Y-90889714D01*
X115133429Y-90746857D01*
X115133429Y-90318286D01*
X115204858Y-90175429D01*
X115276286Y-90104000D01*
X115419144Y-90032571D01*
X115633429Y-90032571D01*
X115776286Y-90104000D01*
X115847715Y-90175429D01*
X115919144Y-90318286D01*
X115919144Y-90746857D01*
X115847715Y-90889714D01*
X115776286Y-90961143D01*
X115633429Y-91032571D01*
X115419144Y-91032571D01*
X117990572Y-89532571D02*
X118276286Y-89532571D01*
X118419144Y-89604000D01*
X118562001Y-89746857D01*
X118633429Y-90032571D01*
X118633429Y-90532571D01*
X118562001Y-90818286D01*
X118419144Y-90961143D01*
X118276286Y-91032571D01*
X117990572Y-91032571D01*
X117847715Y-90961143D01*
X117704858Y-90818286D01*
X117633429Y-90532571D01*
X117633429Y-90032571D01*
X117704858Y-89746857D01*
X117847715Y-89604000D01*
X117990572Y-89532571D01*
X119490573Y-91032571D02*
X119347715Y-90961143D01*
X119276287Y-90818286D01*
X119276287Y-89532571D01*
X120062001Y-91032571D02*
X120062001Y-90032571D01*
X120062001Y-89532571D02*
X119990572Y-89604000D01*
X120062001Y-89675429D01*
X120133429Y-89604000D01*
X120062001Y-89532571D01*
X120062001Y-89675429D01*
X120633430Y-90032571D02*
X120990573Y-91032571D01*
X121347715Y-90032571D01*
X122562001Y-91032571D02*
X122562001Y-90246857D01*
X122490572Y-90104000D01*
X122347715Y-90032571D01*
X122062001Y-90032571D01*
X121919144Y-90104000D01*
X122562001Y-90961143D02*
X122419144Y-91032571D01*
X122062001Y-91032571D01*
X121919144Y-90961143D01*
X121847715Y-90818286D01*
X121847715Y-90675429D01*
X121919144Y-90532571D01*
X122062001Y-90461143D01*
X122419144Y-90461143D01*
X122562001Y-90389714D01*
X123276287Y-91032571D02*
X123276287Y-90032571D01*
X123276287Y-90318286D02*
X123347715Y-90175429D01*
X123419144Y-90104000D01*
X123562001Y-90032571D01*
X123704858Y-90032571D01*
X124776286Y-90961143D02*
X124633429Y-91032571D01*
X124347715Y-91032571D01*
X124204858Y-90961143D01*
X124133429Y-90818286D01*
X124133429Y-90246857D01*
X124204858Y-90104000D01*
X124347715Y-90032571D01*
X124633429Y-90032571D01*
X124776286Y-90104000D01*
X124847715Y-90246857D01*
X124847715Y-90389714D01*
X124133429Y-90532571D01*
X125419143Y-90961143D02*
X125562000Y-91032571D01*
X125847715Y-91032571D01*
X125990572Y-90961143D01*
X126062000Y-90818286D01*
X126062000Y-90746857D01*
X125990572Y-90604000D01*
X125847715Y-90532571D01*
X125633429Y-90532571D01*
X125490572Y-90461143D01*
X125419143Y-90318286D01*
X125419143Y-90246857D01*
X125490572Y-90104000D01*
X125633429Y-90032571D01*
X125847715Y-90032571D01*
X125990572Y-90104000D01*
D12*
X131826000Y-98298000D02*
X131826000Y-103378000D01*
X131826000Y-103378000D02*
X134366000Y-103378000D01*
X134366000Y-103378000D02*
X134366000Y-98298000D01*
X134646000Y-95478000D02*
X134646000Y-97028000D01*
X134366000Y-98298000D02*
X131826000Y-98298000D01*
X131546000Y-97028000D02*
X131546000Y-95478000D01*
X131546000Y-95478000D02*
X134646000Y-95478000D01*
X134366000Y-115316000D02*
X134366000Y-107696000D01*
X131826000Y-115316000D02*
X131826000Y-107696000D01*
X131546000Y-118136000D02*
X131546000Y-116586000D01*
X134366000Y-107696000D02*
X131826000Y-107696000D01*
X131826000Y-115316000D02*
X134366000Y-115316000D01*
X134646000Y-116586000D02*
X134646000Y-118136000D01*
X134646000Y-118136000D02*
X131546000Y-118136000D01*
X132080000Y-83566000D02*
X132080000Y-91186000D01*
X134620000Y-83566000D02*
X134620000Y-91186000D01*
X134900000Y-80746000D02*
X134900000Y-82296000D01*
X132080000Y-91186000D02*
X134620000Y-91186000D01*
X134620000Y-83566000D02*
X132080000Y-83566000D01*
X131800000Y-82296000D02*
X131800000Y-80746000D01*
X131800000Y-80746000D02*
X134900000Y-80746000D01*
X128414780Y-87271860D02*
X128775460Y-88742520D01*
X128775460Y-88742520D02*
X129054860Y-87680800D01*
X129054860Y-87680800D02*
X129364740Y-88752680D01*
X129364740Y-88752680D02*
X129705100Y-87302340D01*
X126994920Y-87962740D02*
X127784860Y-87952580D01*
X127784860Y-87952580D02*
X127795020Y-87962740D01*
X127795020Y-87962740D02*
X127795020Y-87952580D01*
X127835660Y-87241380D02*
X127835660Y-88783160D01*
X126946660Y-87231220D02*
X126946660Y-88800940D01*
X126946660Y-88800940D02*
X126956820Y-88790780D01*
X126395480Y-87332820D02*
X126044960Y-87251540D01*
X126044960Y-87251540D02*
X125724920Y-87241380D01*
X125724920Y-87241380D02*
X125486160Y-87442040D01*
X125486160Y-87442040D02*
X125455680Y-87711280D01*
X125455680Y-87711280D02*
X125696980Y-87952580D01*
X125696980Y-87952580D02*
X126085600Y-88082120D01*
X126085600Y-88082120D02*
X126265940Y-88242140D01*
X126265940Y-88242140D02*
X126306580Y-88541860D01*
X126306580Y-88541860D02*
X126075440Y-88762840D01*
X126075440Y-88762840D02*
X125755400Y-88790780D01*
X125755400Y-88790780D02*
X125404880Y-88681560D01*
X124366020Y-87231220D02*
X124117100Y-87251540D01*
X124117100Y-87251540D02*
X123875800Y-87492840D01*
X123875800Y-87492840D02*
X123786900Y-87983060D01*
X123786900Y-87983060D02*
X123814840Y-88331040D01*
X123814840Y-88331040D02*
X124015500Y-88651080D01*
X124015500Y-88651080D02*
X124266960Y-88773000D01*
X124266960Y-88773000D02*
X124576840Y-88701880D01*
X124576840Y-88701880D02*
X124795280Y-88521540D01*
X124795280Y-88521540D02*
X124866400Y-88061800D01*
X124866400Y-88061800D02*
X124815600Y-87652860D01*
X124815600Y-87652860D02*
X124706380Y-87370920D01*
X124706380Y-87370920D02*
X124345700Y-87241380D01*
X124965460Y-85511640D02*
X124706380Y-86072980D01*
X124706380Y-86072980D02*
X125244860Y-86591140D01*
X125244860Y-86591140D02*
X125765560Y-86321900D01*
X125765560Y-86321900D02*
X126044960Y-86481920D01*
X127485140Y-86461600D02*
X127815340Y-86271100D01*
X127815340Y-86271100D02*
X128254760Y-86601300D01*
X128254760Y-86601300D02*
X128727200Y-86111080D01*
X128727200Y-86111080D02*
X128445260Y-85631020D01*
X128445260Y-85631020D02*
X128635760Y-85161120D01*
X128635760Y-85161120D02*
X129245360Y-84973160D01*
X129245360Y-84973160D02*
X129245360Y-84292440D01*
X129245360Y-84292440D02*
X128686560Y-84152740D01*
X128686560Y-84152740D02*
X128485900Y-83581240D01*
X128485900Y-83581240D02*
X128755140Y-83111340D01*
X128755140Y-83111340D02*
X128285240Y-82600800D01*
X128285240Y-82600800D02*
X127767080Y-82862420D01*
X127767080Y-82862420D02*
X127297180Y-82661760D01*
X127297180Y-82661760D02*
X127127000Y-82120740D01*
X127127000Y-82120740D02*
X126436120Y-82102960D01*
X126436120Y-82102960D02*
X126225300Y-82651600D01*
X126225300Y-82651600D02*
X125806200Y-82821780D01*
X125806200Y-82821780D02*
X125255020Y-82552540D01*
X125255020Y-82552540D02*
X124736860Y-83080860D01*
X124736860Y-83080860D02*
X124985780Y-83621880D01*
X124985780Y-83621880D02*
X124815600Y-84101940D01*
X124815600Y-84101940D02*
X124266960Y-84201000D01*
X124266960Y-84201000D02*
X124256800Y-84902040D01*
X124256800Y-84902040D02*
X124815600Y-85102700D01*
X124815600Y-85102700D02*
X124955300Y-85501480D01*
X127096520Y-85481160D02*
X127396240Y-85331300D01*
X127396240Y-85331300D02*
X127596900Y-85133180D01*
X127596900Y-85133180D02*
X127746760Y-84731860D01*
X127746760Y-84731860D02*
X127746760Y-84333080D01*
X127746760Y-84333080D02*
X127596900Y-83982560D01*
X127596900Y-83982560D02*
X127144780Y-83632040D01*
X127144780Y-83632040D02*
X126695200Y-83581240D01*
X126695200Y-83581240D02*
X126296420Y-83682840D01*
X126296420Y-83682840D02*
X125895100Y-84030820D01*
X125895100Y-84030820D02*
X125745240Y-84482940D01*
X125745240Y-84482940D02*
X125796040Y-84980780D01*
X125796040Y-84980780D02*
X126044960Y-85283040D01*
X126044960Y-85283040D02*
X126395480Y-85481160D01*
X126395480Y-85481160D02*
X126044960Y-86481920D01*
X127096520Y-85481160D02*
X127495300Y-86481920D01*
X95758000Y-78486000D02*
X95758000Y-129286000D01*
X100838000Y-126746000D02*
X100838000Y-78486000D01*
X95758000Y-78486000D02*
X100838000Y-78486000D01*
X95758000Y-129286000D02*
X98298000Y-129286000D01*
X99568000Y-129566000D02*
X101118000Y-129566000D01*
X98298000Y-129286000D02*
X98298000Y-126746000D01*
X98298000Y-126746000D02*
X100838000Y-126746000D01*
X101118000Y-129566000D02*
X101118000Y-128016000D01*
X107188000Y-78740000D02*
X124968000Y-78740000D01*
X124968000Y-78740000D02*
X124968000Y-81280000D01*
X124968000Y-81280000D02*
X107188000Y-81280000D01*
X104368000Y-78460000D02*
X105918000Y-78460000D01*
X107188000Y-78740000D02*
X107188000Y-81280000D01*
X105918000Y-81560000D02*
X104368000Y-81560000D01*
X104368000Y-81560000D02*
X104368000Y-78460000D01*
D13*
X107442000Y-93726000D02*
X107442000Y-126746000D01*
X107442000Y-126746000D02*
X125222000Y-126746000D01*
X125222000Y-126746000D02*
X125222000Y-93726000D01*
X125222000Y-93726000D02*
X107442000Y-93726000D01*
X117602000Y-94996000D02*
X115062000Y-94996000D01*
X115062000Y-94996000D02*
X113792000Y-96266000D01*
X113792000Y-96266000D02*
X113792000Y-98806000D01*
X113792000Y-98806000D02*
X115062000Y-100076000D01*
X115062000Y-100076000D02*
X117602000Y-100076000D01*
X117602000Y-100076000D02*
X118872000Y-98806000D01*
X118872000Y-98806000D02*
X118872000Y-96266000D01*
X118872000Y-96266000D02*
X117602000Y-94996000D01*
X116332000Y-102616000D02*
X121412000Y-107696000D01*
X121412000Y-107696000D02*
X116332000Y-112776000D01*
X116332000Y-112776000D02*
X111252000Y-107696000D01*
X111252000Y-107696000D02*
X116332000Y-102616000D01*
D12*
X130405143Y-101020476D02*
X130452762Y-101068095D01*
X130500381Y-101210952D01*
X130500381Y-101306190D01*
X130452762Y-101449048D01*
X130357524Y-101544286D01*
X130262286Y-101591905D01*
X130071810Y-101639524D01*
X129928952Y-101639524D01*
X129738476Y-101591905D01*
X129643238Y-101544286D01*
X129548000Y-101449048D01*
X129500381Y-101306190D01*
X129500381Y-101210952D01*
X129548000Y-101068095D01*
X129595619Y-101020476D01*
X129500381Y-100401429D02*
X129500381Y-100210952D01*
X129548000Y-100115714D01*
X129643238Y-100020476D01*
X129833714Y-99972857D01*
X130167048Y-99972857D01*
X130357524Y-100020476D01*
X130452762Y-100115714D01*
X130500381Y-100210952D01*
X130500381Y-100401429D01*
X130452762Y-100496667D01*
X130357524Y-100591905D01*
X130167048Y-100639524D01*
X129833714Y-100639524D01*
X129643238Y-100591905D01*
X129548000Y-100496667D01*
X129500381Y-100401429D01*
X129595619Y-99591905D02*
X129548000Y-99544286D01*
X129500381Y-99449048D01*
X129500381Y-99210952D01*
X129548000Y-99115714D01*
X129595619Y-99068095D01*
X129690857Y-99020476D01*
X129786095Y-99020476D01*
X129928952Y-99068095D01*
X130500381Y-99639524D01*
X130500381Y-99020476D01*
X130754381Y-114387048D02*
X129754381Y-114387048D01*
X129754381Y-114148953D01*
X129802000Y-114006095D01*
X129897238Y-113910857D01*
X129992476Y-113863238D01*
X130182952Y-113815619D01*
X130325810Y-113815619D01*
X130516286Y-113863238D01*
X130611524Y-113910857D01*
X130706762Y-114006095D01*
X130754381Y-114148953D01*
X130754381Y-114387048D01*
X130754381Y-113387048D02*
X129754381Y-113387048D01*
X130230571Y-113387048D02*
X130230571Y-112815619D01*
X130754381Y-112815619D02*
X129754381Y-112815619D01*
X129754381Y-112482286D02*
X129754381Y-111910857D01*
X130754381Y-112196572D02*
X129754381Y-112196572D01*
X129849619Y-111625143D02*
X129802000Y-111577524D01*
X129754381Y-111482286D01*
X129754381Y-111244190D01*
X129802000Y-111148952D01*
X129849619Y-111101333D01*
X129944857Y-111053714D01*
X130040095Y-111053714D01*
X130182952Y-111101333D01*
X130754381Y-111672762D01*
X130754381Y-111053714D01*
X129849619Y-110672762D02*
X129802000Y-110625143D01*
X129754381Y-110529905D01*
X129754381Y-110291809D01*
X129802000Y-110196571D01*
X129849619Y-110148952D01*
X129944857Y-110101333D01*
X130040095Y-110101333D01*
X130182952Y-110148952D01*
X130754381Y-110720381D01*
X130754381Y-110101333D01*
X131397619Y-79652762D02*
X131540476Y-79700381D01*
X131778572Y-79700381D01*
X131873810Y-79652762D01*
X131921429Y-79605143D01*
X131969048Y-79509905D01*
X131969048Y-79414667D01*
X131921429Y-79319429D01*
X131873810Y-79271810D01*
X131778572Y-79224190D01*
X131588095Y-79176571D01*
X131492857Y-79128952D01*
X131445238Y-79081333D01*
X131397619Y-78986095D01*
X131397619Y-78890857D01*
X131445238Y-78795619D01*
X131492857Y-78748000D01*
X131588095Y-78700381D01*
X131826191Y-78700381D01*
X131969048Y-78748000D01*
X132540476Y-79700381D02*
X132445238Y-79652762D01*
X132397619Y-79605143D01*
X132350000Y-79509905D01*
X132350000Y-79224190D01*
X132397619Y-79128952D01*
X132445238Y-79081333D01*
X132540476Y-79033714D01*
X132683334Y-79033714D01*
X132778572Y-79081333D01*
X132826191Y-79128952D01*
X132873810Y-79224190D01*
X132873810Y-79509905D01*
X132826191Y-79605143D01*
X132778572Y-79652762D01*
X132683334Y-79700381D01*
X132540476Y-79700381D01*
X133302381Y-79033714D02*
X133302381Y-79700381D01*
X133302381Y-79128952D02*
X133350000Y-79081333D01*
X133445238Y-79033714D01*
X133588096Y-79033714D01*
X133683334Y-79081333D01*
X133730953Y-79176571D01*
X133730953Y-79700381D01*
X134635715Y-79700381D02*
X134635715Y-79176571D01*
X134588096Y-79081333D01*
X134492858Y-79033714D01*
X134302381Y-79033714D01*
X134207143Y-79081333D01*
X134635715Y-79652762D02*
X134540477Y-79700381D01*
X134302381Y-79700381D01*
X134207143Y-79652762D01*
X134159524Y-79557524D01*
X134159524Y-79462286D01*
X134207143Y-79367048D01*
X134302381Y-79319429D01*
X134540477Y-79319429D01*
X134635715Y-79271810D01*
X135111905Y-79700381D02*
X135111905Y-79033714D01*
X135111905Y-79224190D02*
X135159524Y-79128952D01*
X135207143Y-79081333D01*
X135302381Y-79033714D01*
X135397620Y-79033714D01*
X132048381Y-125222261D02*
X131715047Y-124746070D01*
X131476952Y-125222261D02*
X131476952Y-124222261D01*
X131857905Y-124222261D01*
X131953143Y-124269880D01*
X132000762Y-124317499D01*
X132048381Y-124412737D01*
X132048381Y-124555594D01*
X132000762Y-124650832D01*
X131953143Y-124698451D01*
X131857905Y-124746070D01*
X131476952Y-124746070D01*
X132476952Y-124698451D02*
X132810286Y-124698451D01*
X132953143Y-125222261D02*
X132476952Y-125222261D01*
X132476952Y-124222261D01*
X132953143Y-124222261D01*
X133715048Y-124698451D02*
X133381714Y-124698451D01*
X133381714Y-125222261D02*
X133381714Y-124222261D01*
X133857905Y-124222261D01*
X134762667Y-125222261D02*
X134191238Y-125222261D01*
X134476952Y-125222261D02*
X134476952Y-124222261D01*
X134381714Y-124365118D01*
X134286476Y-124460356D01*
X134191238Y-124507975D01*
X95068000Y-131568381D02*
X94734666Y-131092190D01*
X94496571Y-131568381D02*
X94496571Y-130568381D01*
X94877524Y-130568381D01*
X94972762Y-130616000D01*
X95020381Y-130663619D01*
X95068000Y-130758857D01*
X95068000Y-130901714D01*
X95020381Y-130996952D01*
X94972762Y-131044571D01*
X94877524Y-131092190D01*
X94496571Y-131092190D01*
X95496571Y-131568381D02*
X95496571Y-130568381D01*
X95877524Y-130568381D01*
X95972762Y-130616000D01*
X96020381Y-130663619D01*
X96068000Y-130758857D01*
X96068000Y-130901714D01*
X96020381Y-130996952D01*
X95972762Y-131044571D01*
X95877524Y-131092190D01*
X95496571Y-131092190D01*
X96496571Y-131568381D02*
X96496571Y-130901714D01*
X96496571Y-130568381D02*
X96448952Y-130616000D01*
X96496571Y-130663619D01*
X96544190Y-130616000D01*
X96496571Y-130568381D01*
X96496571Y-130663619D01*
X98163238Y-131520762D02*
X98068000Y-131568381D01*
X97877523Y-131568381D01*
X97782285Y-131520762D01*
X97734666Y-131473143D01*
X97687047Y-131377905D01*
X97687047Y-131092190D01*
X97734666Y-130996952D01*
X97782285Y-130949333D01*
X97877523Y-130901714D01*
X98068000Y-130901714D01*
X98163238Y-130949333D01*
X98734666Y-131568381D02*
X98639428Y-131520762D01*
X98591809Y-131473143D01*
X98544190Y-131377905D01*
X98544190Y-131092190D01*
X98591809Y-130996952D01*
X98639428Y-130949333D01*
X98734666Y-130901714D01*
X98877524Y-130901714D01*
X98972762Y-130949333D01*
X99020381Y-130996952D01*
X99068000Y-131092190D01*
X99068000Y-131377905D01*
X99020381Y-131473143D01*
X98972762Y-131520762D01*
X98877524Y-131568381D01*
X98734666Y-131568381D01*
X99496571Y-130901714D02*
X99496571Y-131568381D01*
X99496571Y-130996952D02*
X99544190Y-130949333D01*
X99639428Y-130901714D01*
X99782286Y-130901714D01*
X99877524Y-130949333D01*
X99925143Y-131044571D01*
X99925143Y-131568381D01*
X100401333Y-130901714D02*
X100401333Y-131568381D01*
X100401333Y-130996952D02*
X100448952Y-130949333D01*
X100544190Y-130901714D01*
X100687048Y-130901714D01*
X100782286Y-130949333D01*
X100829905Y-131044571D01*
X100829905Y-131568381D01*
X101687048Y-131520762D02*
X101591810Y-131568381D01*
X101401333Y-131568381D01*
X101306095Y-131520762D01*
X101258476Y-131425524D01*
X101258476Y-131044571D01*
X101306095Y-130949333D01*
X101401333Y-130901714D01*
X101591810Y-130901714D01*
X101687048Y-130949333D01*
X101734667Y-131044571D01*
X101734667Y-131139810D01*
X101258476Y-131235048D01*
X102591810Y-131520762D02*
X102496572Y-131568381D01*
X102306095Y-131568381D01*
X102210857Y-131520762D01*
X102163238Y-131473143D01*
X102115619Y-131377905D01*
X102115619Y-131092190D01*
X102163238Y-130996952D01*
X102210857Y-130949333D01*
X102306095Y-130901714D01*
X102496572Y-130901714D01*
X102591810Y-130949333D01*
X102877524Y-130901714D02*
X103258476Y-130901714D01*
X103020381Y-130568381D02*
X103020381Y-131425524D01*
X103068000Y-131520762D01*
X103163238Y-131568381D01*
X103258476Y-131568381D01*
X103734667Y-131568381D02*
X103639429Y-131520762D01*
X103591810Y-131473143D01*
X103544191Y-131377905D01*
X103544191Y-131092190D01*
X103591810Y-130996952D01*
X103639429Y-130949333D01*
X103734667Y-130901714D01*
X103877525Y-130901714D01*
X103972763Y-130949333D01*
X104020382Y-130996952D01*
X104068001Y-131092190D01*
X104068001Y-131377905D01*
X104020382Y-131473143D01*
X103972763Y-131520762D01*
X103877525Y-131568381D01*
X103734667Y-131568381D01*
X104496572Y-131568381D02*
X104496572Y-130901714D01*
X104496572Y-131092190D02*
X104544191Y-130996952D01*
X104591810Y-130949333D01*
X104687048Y-130901714D01*
X104782287Y-130901714D01*
X101270381Y-80748095D02*
X100270381Y-80748095D01*
X100270381Y-80367142D01*
X100318000Y-80271904D01*
X100365619Y-80224285D01*
X100460857Y-80176666D01*
X100603714Y-80176666D01*
X100698952Y-80224285D01*
X100746571Y-80271904D01*
X100794190Y-80367142D01*
X100794190Y-80748095D01*
X100270381Y-79271904D02*
X100270381Y-79748095D01*
X100746571Y-79795714D01*
X100698952Y-79748095D01*
X100651333Y-79652857D01*
X100651333Y-79414761D01*
X100698952Y-79319523D01*
X100746571Y-79271904D01*
X100841810Y-79224285D01*
X101079905Y-79224285D01*
X101175143Y-79271904D01*
X101222762Y-79319523D01*
X101270381Y-79414761D01*
X101270381Y-79652857D01*
X101222762Y-79748095D01*
X101175143Y-79795714D01*
M02*
